<?xml version="1.0" standalone="yes"?>
<svg xmlns="http://www.w3.org/2000/svg" width="668" height="410">
<path style="fill:#2d2729; stroke:none;" d="M0 0C5.46248 2.29214 13.113 1 19 1L58 1L194 1L668 1C662.537 -1.29218 654.887 0 649 0L610 0L474 0L0 0z"/>
<path style="fill:#f7f2f2; stroke:none;" d="M0 1L0 204C12.9503 197.32 23.5592 181.106 22.7832 166C22.2624 155.862 17.7549 145.998 17.054 135.985C15.3009 110.942 24.9305 88.2617 48.439 77.0008C55.3264 73.7016 63.4035 72.0059 71 72C71.272 66.6891 73.0905 61.7856 74.5633 56.7184C86.6464 15.1447 138.257 7.55896 175 10.0895C181.961 10.5689 189.222 11.871 196 13.4059C202.576 14.895 209.338 14.9583 216 16.5895C223.924 18.5298 232.051 19.9672 239.83 22.4012C246.393 24.4547 253.151 27.2368 260 28C263.726 28.4153 267.254 29.7482 271 29.9568C287.305 30.8648 305.353 26.782 318.271 16.5C322.526 13.1129 327.473 10.5381 329 5L333 5C333.552 12.0045 341.637 17.9551 347.601 20.9992C358.171 26.3946 369.375 27.7717 381 29.2816C388.192 30.2159 396.87 31.1044 404 29.402C411.798 27.5403 419.227 24.2553 427 22.3326C459.064 14.4012 491.745 7.50601 525 10.831C544.036 12.7343 562.07 16.8181 577.689 28.4498C586.943 35.3413 593.356 46.6852 597.926 57C599.676 60.9492 599.634 67.1773 602.819 70.2577C605.801 73.1424 613.097 72.691 617.089 74.3804C628.039 79.0138 639.159 87.2583 644.731 98.0146C650.991 110.1 653.844 123.376 652.911 137C652.189 147.538 647.752 157.507 647.217 168C647.021 171.84 648.761 175.451 650 179C653.362 188.633 658.462 198.32 668 203L668 1L0 1z"/>
<path style="fill:#2d2729; stroke:none;" d="M329 5C325.892 11.989 318.602 17.0586 312.039 20.5C298.98 27.3475 282.827 31.5931 268 29.5748C255.881 27.9252 244.889 22.3288 233 20.2593C224.074 18.7056 214.925 15.1377 206 14.1288C171.361 10.2132 128.312 2.66827 97.7454 25.2238C92.2377 29.2879 88.3864 34.0082 84.2184 39.2546C76.9151 48.4475 71.2824 59.9335 71 72C38.0755 72.113 15.5949 99.1813 17.0394 131C17.4268 139.534 19.768 148.62 21.3742 157C22.1528 161.062 23.4764 164.691 22.7407 168.91C21.0861 178.4 16.9774 188.661 10.6165 195.964C7.47228 199.574 3.04529 201.361 0 205C13.6107 210.293 22.1881 228.098 22.9568 242C23.6128 253.863 19.1491 265.451 17.2593 277C15.7351 286.314 16.8238 297.064 19.6219 306C24.0592 320.17 36.1191 332.81 50.0394 337.822C53.5529 339.087 57.2835 340.351 61 340.816C63.8081 341.168 67.1648 340.677 69.4367 342.742C73.5687 346.498 73.4326 355.637 75.4444 360.729C79.3174 370.532 86.1597 380.069 94.5139 386.55C120.32 406.57 156.248 406.075 187 402.286C193.807 401.448 201.053 401.17 207.715 399.545C219.383 396.698 231.159 393.855 242.715 390.563C249.617 388.597 256.776 385.391 264 385.04C279.711 384.276 295.481 384.335 309.754 391.785C314.062 394.034 318.402 397.041 321.964 400.344C325.511 403.634 327.997 407.271 333 408C334.543 402.006 340.883 397.83 346.001 394.771C358.035 387.578 371.171 385.197 385 384.086C390.12 383.674 395.681 382.261 400.715 383.711C442.812 395.839 487.991 410.009 532.089 402.259C535.368 401.683 538.714 402.148 542 401.486C553.862 399.096 566.833 393.941 576.482 386.55C585.259 379.827 592.302 370.092 596.664 360C598.599 355.522 598.853 347.939 602.434 344.56C606.088 341.112 612.389 341.12 616.911 339.465C625.254 336.411 631.742 332.413 637.885 325.91C650.191 312.883 654.489 292.426 652.83 275C651.89 265.122 647.881 255.801 647.093 246C645.854 230.564 655.044 213.169 668 205L668 203C657.417 197.515 647.38 181 647.34 169C647.318 162.114 650.052 155.608 651.483 149C653.74 138.577 653.93 126.392 651.403 116C647.124 98.4038 637.68 83.8881 620.996 75.75C617.678 74.1315 613.47 72.946 609.83 72.2585C607.374 71.7946 604.645 72.2278 602.653 70.3966C598.329 66.4222 598.127 56.3529 595.687 51.0038C590.764 40.2139 580.698 28.9992 570.331 23.0903C529.564 -0.146423 478.002 11.6986 435.17 20.2546C423.255 22.6347 411.13 29.2805 399 29.9568C381.545 30.9299 360.36 28.8062 345.235 19.2894C339.108 15.4337 335.242 8.19824 329 5z"/>
<path style="fill:#d82719; stroke:none;" d="M331 5L331 7L333 7L333 5L331 5M173 10C175.052 10.8743 176.747 10.9528 179 11C176.948 10.1258 175.253 10.0472 173 10M490 10C492.052 10.8742 493.747 10.9528 496 11C493.948 10.1257 492.253 10.0472 490 10M479 11C481.052 11.8742 482.747 11.9528 485 12C482.948 11.1258 481.253 11.0472 479 11M539.667 12.3333C539.222 12.7776 540.278 12.7224 540.333 12.6667C540.778 12.222 539.722 12.2779 539.667 12.3333M337 13L338 14L337 13M541 13C542.248 13.6848 542.548 13.7488 544 14C542.752 13.3152 542.452 13.2512 541 13M320 14L319 16L321 16C321 14.1467 321.3 14.6499 320 14M339.333 14.6667C339.278 14.7222 339.222 15.7778 339.667 15.3333C339.722 15.2778 339.778 14.2221 339.333 14.6667M460.667 14.3333C460.222 14.7777 461.278 14.7223 461.333 14.6667C461.778 14.2223 460.722 14.2778 460.667 14.3333M548.667 14.3333C548.222 14.7776 549.278 14.7224 549.333 14.6667C549.778 14.222 548.722 14.278 548.667 14.3333M458.667 15.3333C458.222 15.7777 459.278 15.7223 459.333 15.6667C459.778 15.2222 458.722 15.2778 458.667 15.3333M550.667 15.3333C550.222 15.7776 551.278 15.7224 551.333 15.6667C551.778 15.222 550.722 15.278 550.667 15.3333M215.667 16.3333C215.222 16.7779 216.278 16.7221 216.333 16.6667C216.778 16.2224 215.722 16.2777 215.667 16.3333M317 16L317 18L319 18L319 16L317 16M450.667 16.3333C450.222 16.7778 451.278 16.7222 451.333 16.6667C451.778 16.2222 450.722 16.2779 450.667 16.3333M217.667 17.3333C217.222 17.7779 218.278 17.7221 218.333 17.6667C218.778 17.2224 217.722 17.2777 217.667 17.3333M556.667 17.3333C556.222 17.7776 557.278 17.7224 557.333 17.6667C557.778 17.222 556.722 17.2779 556.667 17.3333M223.667 18.3333C223.222 18.7779 224.278 18.7221 224.333 18.6667C224.778 18.2224 223.722 18.2778 223.667 18.3333M225.667 19.3333C225.222 19.7779 226.278 19.7221 226.333 19.6667C226.778 19.2224 225.722 19.2777 225.667 19.3333M564 20C565.139 21.0154 565.612 21.3086 567 22C566.02 20.2167 566.092 20.4056 564 20M431.667 21.3333C431.222 21.7777 432.278 21.7223 432.333 21.6667C432.778 21.2222 431.722 21.2779 431.667 21.3333z"/>
<path style="fill:#f7f2f2; stroke:none;" d="M82 331C82 343.083 84.0495 355.151 90.7106 365.525C93.397 369.708 97.6935 372.708 100 377C107.153 378.686 113.066 384.333 120.285 386.587C140.199 392.804 162.38 393.283 183 390.816C200.487 388.723 217.903 384.883 235 380.421C250.189 376.456 263.954 370.991 280 372.09C290.966 372.84 301.714 375.115 311.576 380.086C318.067 383.359 324.125 388.933 331 391C339.944 379.392 360.177 374.503 374 372.95C383.873 371.841 395.137 370.689 405 372.465C413.825 374.053 422.282 378.169 431 380.407C449.361 385.12 468.207 388.814 487 390.826C494.534 391.633 502.427 391 510 391C537.111 391 564.546 387.726 581.776 364.255C585.111 359.712 587.751 353.497 588.834 348C589.637 343.924 589.887 336.533 592.603 333.318C595.01 330.468 599.644 330.935 603 330.41C610.813 329.186 624.137 326.471 627 318L631 318C632.064 313.854 635.066 310.671 636.749 306.711C639.958 299.161 641.971 290.22 641.971 282C641.971 270.244 638.086 258.621 636.826 247C636.499 243.979 635.395 241.069 635.768 238C636.774 229.71 640.278 221.755 644.001 214.4C645.547 211.346 649.476 207.334 649.448 203.844C649.416 200.025 645.371 196.918 643.714 193.711C640.233 186.977 636.91 178.619 636.595 171C636.091 158.815 640.741 147.042 641.829 135C642.944 122.676 639.102 109.653 632.286 99.4784C626.632 91.0373 616.52 86.574 606.985 84.1342C602.752 83.0509 595.801 84.1348 592.742 80.5663C588.677 75.8251 589.386 65.9865 587.116 60.1698C581.152 44.8882 569.286 34.2931 554 28.5332C514.726 13.7346 468.095 24.3228 429 34.3781C419.614 36.7921 410.458 41.0594 400.91 42.7407C392.823 44.1649 384.888 42.3429 377 41.2083C368.231 39.947 359.249 39.2201 351 35.6636C346.484 33.7166 342.142 31.3508 338.174 28.4491C335.903 26.7888 333.025 23.7976 330.003 23.8341C325.198 23.8922 319.194 30.6681 314.83 32.7107C303.801 37.8737 293.113 40.6822 281 41.8302C258.631 43.9503 236.378 33.7988 215 28.5972C208.42 26.9963 201.631 26.6998 195 25.5363C161.597 19.6748 125.882 18.5887 97.75 40.2238C88.7387 47.154 85.105 60.7181 82.2052 71C81.3211 74.1349 81.8258 78.8819 79.9722 81.5663C77.1657 85.631 69.2185 83.6785 65 84.4676C56.5535 86.0475 44.2806 90.5637 38.7099 97.5286C30.0462 108.36 26.5858 120.155 28.2863 134C29.8319 146.586 35.8172 159.143 33.6744 172C32.5257 178.892 29.4695 186.799 26.2191 192.961C24.1776 196.831 20.4465 201.158 21.2932 205.844C21.9319 209.379 25.0185 211.978 26.6019 215.09C29.9188 221.607 33.4975 230.681 34.0725 238C35.7783 259.709 21.642 282.661 30.4792 303.961C32.8555 309.688 37.2736 314.735 41.6705 318.997C45.4292 322.64 49.9992 325.168 55 326.714C63.935 329.476 72.8094 329.839 82 331z"/>
<path style="fill:#d82719; stroke:none;" d="M175 22C177.535 23.1394 180.256 23.4818 183 24C180.44 22.0582 178.192 22.035 175 22M240.667 22.3333C240.222 22.7779 241.278 22.7221 241.333 22.6667C241.778 22.2224 240.722 22.2777 240.667 22.3333M425.667 22.3333C425.222 22.7777 426.278 22.7223 426.333 22.6667C426.778 22.2222 425.722 22.2779 425.667 22.3333M423.667 23.3333C423.222 23.7777 424.278 23.7222 424.333 23.6667C424.778 23.2222 423.722 23.2778 423.667 23.3333M127 25C128.809 25.5742 129.069 25.4653 131 25C129.341 24.5935 128.758 24.6914 127 25M190 24C192.588 25.3777 195.08 25.7613 198 26C195.415 24.2315 193.116 24.0725 190 24M471 26L477 25C474.471 23.9605 472.824 23.9068 471 26M539.667 24.3333C539.222 24.7776 540.278 24.7223 540.333 24.6667C540.778 24.222 539.722 24.278 539.667 24.3333M248.667 25.3333C248.222 25.7779 249.278 25.7221 249.333 25.6667C249.778 25.2224 248.722 25.2777 248.667 25.3333M575.667 27.3333C575.222 27.7776 576.278 27.7223 576.333 27.6667C576.778 27.222 575.722 27.2779 575.667 27.3333M260 28C261.769 28.779 263.036 28.9124 265 29C263.231 28.2211 261.964 28.0876 260 28M450.667 28.3333C450.222 28.7777 451.278 28.7222 451.333 28.6667C451.778 28.2222 450.722 28.2779 450.667 28.3333M577.667 28.3333C577.222 28.7776 578.278 28.7224 578.333 28.6667C578.778 28.222 577.722 28.2779 577.667 28.3333M217.667 29.3333C217.222 29.7779 218.278 29.7222 218.333 29.6667C218.778 29.2224 217.722 29.2777 217.667 29.3333M377 29C379.052 29.8742 380.747 29.9528 383 30C380.948 29.1258 379.253 29.0472 377 29M448.667 29.3333C448.222 29.7777 449.278 29.7223 449.333 29.6667C449.778 29.2222 448.722 29.2778 448.667 29.3333M221.667 30.3333C221.222 30.7779 222.278 30.7221 222.333 30.6667C222.778 30.2224 221.722 30.2777 221.667 30.3333M443 30C444.248 30.6848 444.548 30.7488 446 31C444.752 30.3152 444.452 30.2512 443 30M579.667 30.3333C579.222 30.7776 580.278 30.7223 580.333 30.6667C580.778 30.222 579.722 30.2779 579.667 30.3333z"/>
<path style="fill:#2d2729; stroke:none;" d="M100 364C105.519 366.455 109.791 371.626 115.17 374.677C123.828 379.59 135.383 381.701 145.09 382.871C157.733 384.395 170.685 382.579 183.039 381.129C202.024 378.9 220.32 375.002 238.91 370.16C245.014 368.571 250.869 365.355 257.09 364.259C261.308 363.516 265.671 364.382 269.91 363.871C272.331 363.579 274.543 362.258 277 362.258C279.457 362.258 281.669 363.579 284.09 363.871C293.205 364.97 302.425 365.289 311.001 369.274C316.454 371.808 324.597 379.463 330.87 378.681C337.751 377.824 344.587 371.051 351.285 368.71C360.821 365.377 370.113 365.052 379.91 363.871C387.107 363.004 393.524 361.532 400.985 362.054C412.471 362.858 423.882 369.21 435 371.965C452.66 376.34 470.079 379.029 487.961 381.129C509.699 383.681 533.346 384.828 554.004 375.667C565.485 370.575 574.84 362.868 579.582 350.91C582.54 343.451 582.554 335.436 587.714 328.924C593.025 322.222 599.604 323.049 607 320.78C615.274 318.242 622.536 313.978 627.505 306.718C640.742 287.379 629.901 262.743 628.174 242C627.51 234.035 630.278 224.141 633.519 216.925C635.387 212.766 638.488 208.732 638.686 204.001C638.845 200.185 636.294 197.26 634.899 193.911C632.049 187.068 629.401 180.442 628.758 173C626.851 150.955 641.998 127.54 627.252 107.015C622.584 100.518 616.603 95.545 608.711 93.4599C601.801 91.6343 595.599 93.0075 589.554 87.9066C582.555 82.0007 583.209 73.2907 580.583 65.2894C577.19 54.9509 569.326 46.0814 559.7 41.098C548.039 35.0612 535.877 33.0763 523 31.8302C494.758 29.0972 465.318 34.4496 438 41.5795C427.786 44.2454 417.199 48.9106 406.91 50.7407C402.132 51.5909 396.841 51 392 51C377.62 51 363.79 49.3507 350.131 44.5941C345.459 42.9671 340.697 40.4117 336.424 37.9213C334.461 36.7768 332.407 34.8133 329.999 34.8333C325.554 34.8703 320.603 40.1773 316.561 41.9637C306.216 46.5361 294.481 50.8588 283 50.9962C274.415 51.0988 265.464 51.2644 257.015 49.5216C245.571 47.1614 234.37 42.594 222.996 39.8881C202.027 34.8994 180.618 31 159 31C142.274 31 124.323 33.4377 109.88 42.5494C102.262 47.3554 95.4141 55.7628 92.7145 64.4283C90.0188 73.0811 90.6387 82.0608 82.8341 88.4097C77.2529 92.95 72.7324 91.8798 66.2855 93.4553C56.3001 95.8955 46.4398 100.331 41.0941 109.562C29.5246 129.54 44.8302 152.492 41.8403 174C40.9992 180.05 38.805 186.679 36.1952 192.196C34.466 195.852 31.062 200.735 31.5471 204.91C31.9971 208.784 35.3716 212.911 36.9892 216.439C40.0951 223.213 43.7298 234.414 43.5316 241.91C42.9595 263.553 30.4361 285.269 41.8225 305.981C46.3713 314.256 58.2858 318.862 67 320.533C71.8679 321.467 76.5369 321.386 80.9066 324.104C90.8672 330.3 89.6462 340.179 93.054 349.961C94.7977 354.966 98.7084 358.966 100 364z"/>
<path style="fill:#d82719; stroke:none;" d="M225.667 31.3333C225.222 31.7778 226.278 31.7221 226.333 31.6667C226.778 31.2224 225.722 31.2777 225.667 31.3333M229 32C230.248 32.6848 230.548 32.7488 232 33C230.752 32.3152 230.452 32.2512 229 32M314 32C315.248 32.6848 315.549 32.7488 317 33C315.752 32.3152 315.452 32.2512 314 32M435 32C436.248 32.6848 436.549 32.7488 438 33C436.752 32.3152 436.452 32.2512 435 32M581.667 32.3333C581.222 32.7776 582.278 32.7223 582.333 32.6667C582.778 32.2221 581.722 32.2778 581.667 32.3333M190.667 33.3333C190.222 33.7779 191.278 33.7221 191.333 33.6667C191.778 33.2224 190.722 33.2777 190.667 33.3333M431.667 33.3333C431.222 33.7777 432.278 33.7222 432.333 33.6667C432.778 33.2222 431.722 33.2778 431.667 33.3333M477.667 33.3333C477.222 33.7777 478.278 33.7223 478.333 33.6667C478.778 33.2223 477.722 33.2778 477.667 33.3333M237 34C238.248 34.6848 238.548 34.7488 240 35C238.752 34.3152 238.452 34.2512 237 34M427.667 34.3333C427.222 34.7777 428.278 34.7222 428.333 34.6667C428.778 34.2222 427.722 34.2779 427.667 34.3333M583.667 34.3333C583.222 34.7776 584.278 34.7223 584.333 34.6667C584.778 34.2221 583.722 34.2779 583.667 34.3333M350.667 35.3333C350.222 35.7778 351.278 35.7222 351.333 35.6667C351.778 35.2222 350.722 35.2778 350.667 35.3333M123.667 36.3333C123.222 36.7776 124.278 36.7223 124.333 36.6667C124.778 36.2221 123.722 36.2778 123.667 36.3333M46 306C51.0235 307.29 54.48 311.55 59.439 313.272C67.0424 315.914 76.0579 317.032 84 318C85.5603 323.659 91.3368 326.597 93.2724 332.289C96.1924 340.876 96.0115 349.456 101.771 356.999C113.835 372.8 132.639 375.77 150.985 377.054C153.782 377.25 156.285 378.68 159.05 378.817C162.415 378.984 165.593 377.144 169.004 377.019C184.586 376.445 200.701 375.042 215.985 371.316C231.618 367.506 247.036 361.079 263.09 358.259C277.187 355.783 294.23 358.337 307.572 363.019C311.065 364.245 315.326 365.373 318.49 367.27C322.325 369.57 325.161 372.74 330 372.801C335.165 372.866 338.186 369.231 342.464 367.13C346.512 365.142 351.806 363.74 356.155 362.441C371.772 357.774 389.646 356.213 405.961 358.129C412.851 358.938 419.512 362.305 426.09 364.335C433.91 366.748 442.142 368.397 450.039 370.611C469.908 376.181 491.545 377 512 377C527.057 377 541.781 376.687 555.561 369.573C563.201 365.629 570.69 359.663 574.2 351.575C577.828 343.214 577.798 334.04 583.387 326.325C589.323 318.131 596.17 318.585 604.911 316.296C612.624 314.275 619.877 310.206 624.417 303.486C634.784 288.141 626.875 264.66 624.871 248.09C624.45 244.603 622.688 241.723 623.264 238.089C624.545 230.006 626.775 220.933 629.71 213.275C630.904 210.16 634.452 206.703 634.248 203.285C634.101 200.809 631.872 198.364 630.809 196.195C629.231 192.975 628.223 189.411 627.13 186C625.839 181.967 626.027 174.645 623 172L623 170C626.779 166.698 624.449 159.702 625.259 155.09C627.684 141.289 632.296 127.346 625.985 113.615C623.542 108.299 618.657 105.852 616 101C612.151 100.142 608.548 98.3923 604.714 97.4553C595.705 95.2527 590.009 95.6217 583.383 87.9637C577.318 80.9528 577.876 69.8555 573.871 61.5795C567.32 48.0411 552.799 42.0865 539 38.8426C521.078 34.6294 502.091 35.68 484 37.8449C475.284 38.8879 465.775 39.3992 457.285 41.4553C446.726 44.0127 435.816 46.5509 425.425 49.7099C419.672 51.4589 413.858 54.539 407.985 55.6605C399.947 57.1955 390.167 56.3183 382 55.9606C376.717 55.7293 371.926 54.3131 366.83 53.2446C361.522 52.1315 355.492 51.939 350.439 49.946C344.335 47.5385 336.681 41.2577 330 41.2577C322.876 41.2577 315.626 48.5327 308.845 50.5594C292.119 55.5586 275.385 57.2684 258 54.7006C244.901 52.7659 232.525 46.5858 219.715 43.4553C216.251 42.6089 212.64 43.3623 209.17 42.5447C178.891 35.4118 147.151 32.1169 117.435 43.7099C107.959 47.4068 99.2281 57.561 96.4552 67.2886C94.496 74.1618 94.5052 82.3428 89.6273 87.9599C87.0236 90.9582 83.7106 94.661 79.9599 96.1566C67.7679 101.018 53.0768 98.2283 45.0941 111.576C34.9219 128.586 47.7085 150.87 47.3125 168.91C47.144 176.587 43.994 184.628 41.2901 191.725C39.8764 195.436 37.3698 198.952 36.9745 203.003C36.5419 207.438 39.7833 211.319 41.2901 215.275C44.1117 222.681 47.1313 231.139 47.8565 239.039C49.2842 254.593 41.7851 270.541 41.1042 286C40.763 293.745 44.9269 298.942 46 306M242.667 36.3333C242.222 36.7779 243.278 36.7221 243.333 36.6667C243.778 36.2224 242.722 36.2777 242.667 36.3333M84 37L84 39L86 39L86 37L84 37M356.667 37.3333C356.222 37.7777 357.278 37.7222 357.333 37.6667C357.778 37.2222 356.722 37.2778 356.667 37.3333M358 38C359.248 38.6848 359.548 38.7488 361 39C359.752 38.3152 359.452 38.2512 358 38M552.667 38.3333C552.222 38.7777 553.278 38.7223 553.333 38.6667C553.778 38.2221 552.722 38.2779 552.667 38.3333M83 39L82 41L84 41C84 39.1468 84.2997 39.6499 83 39M254.667 39.3333C254.222 39.7779 255.278 39.7221 255.333 39.6667C255.778 39.2224 254.722 39.2777 254.667 39.3333M81.3333 41.6667C81.2777 41.7223 81.2223 42.7777 81.6667 42.3333C81.7222 42.2779 81.7778 41.2222 81.3333 41.6667M229 41L229 43L233 43L233 41L229 41M271 41C274.959 42.6611 279.737 42 284 42C280.041 40.3389 275.263 41 271 41M379 41C381.85 42.9474 384.59 42.9699 388 43C385.138 41.6242 382.162 41.2515 379 41M561.333 41.6667C561.278 41.7224 561.222 42.7779 561.667 42.3333C561.722 42.2779 561.778 41.2222 561.333 41.6667M237 43C238.223 44.1952 238.42 44.3164 240 45C239.02 43.2166 239.092 43.4057 237 43M429.667 43.3333C429.222 43.7777 430.278 43.7222 430.333 43.6667C430.778 43.2222 429.722 43.2778 429.667 43.3333M348.667 44.3333C348.222 44.7777 349.278 44.7223 349.333 44.6667C349.778 44.2222 348.722 44.2778 348.667 44.3333M92 45L92 47L94 47L94 45L92 45M244.667 45.3333C244.222 45.7779 245.278 45.7222 245.333 45.6667C245.778 45.2224 244.722 45.2777 244.667 45.3333M361 47C362.458 48.0811 363.248 48.436 365 49C363.457 47.7333 362.952 47.5107 361 47M569.333 47.6667C569.278 47.7224 569.222 48.7778 569.667 48.3333C569.722 48.2779 569.778 47.2222 569.333 47.6667M252.667 48.3333C252.222 48.7779 253.278 48.7222 253.333 48.6667C253.778 48.2224 252.722 48.2777 252.667 48.3333M287 50C289.393 50.7408 291.493 50.3022 294 50C291.413 48.9346 289.679 49.2185 287 50M375.667 50.3333C375.222 50.7778 376.278 50.7222 376.333 50.6667C376.778 50.2223 375.722 50.2777 375.667 50.3333M408.667 50.3333C408.222 50.7778 409.278 50.7222 409.333 50.6667C409.778 50.2223 408.722 50.2778 408.667 50.3333M75 51L75 53C76.6352 52.455 76.4549 52.6352 77 51L75 51M88 51L88 53L90 53L90 51L88 51M96 55L96 57C97.6351 56.455 97.455 56.6351 98 55L96 55M598 58L599 62C599.553 59.9922 599.303 59.6676 598 58M579.333 62.6667C579.278 62.7224 579.222 63.7776 579.667 63.3333C579.722 63.2779 579.778 62.2222 579.333 62.6667M83.3333 66.6667C83.2777 66.7223 83.2223 67.7777 83.6667 67.3333C83.7221 67.2779 83.7778 66.2221 83.3333 66.6667M600.333 66.6667C600.278 66.7224 600.222 67.7778 600.667 67.3333C600.722 67.278 600.778 66.2221 600.333 66.6667M82.3333 68.6667C82.2777 68.7223 82.2223 69.7777 82.6667 69.3333C82.7221 69.2779 82.7778 68.2221 82.3333 68.6667M601.333 68.6667C601.278 68.7224 601.222 69.7778 601.667 69.3333C601.722 69.278 601.778 68.2221 601.333 68.6667M91 70L91 74C91.7102 72.2405 91.7102 71.7595 91 70M602.667 71.3333C602.222 71.7776 603.278 71.7224 603.333 71.6667C603.778 71.2221 602.722 71.2779 602.667 71.3333M61 72L61 74L63 74L63 72L61 72M590.333 72.6667C590.278 72.7223 590.222 73.7779 590.667 73.3333C590.722 73.2779 590.778 72.2222 590.333 72.6667M612 72L612 74L614 74L614 72L612 72M52 75C53.8092 75.5742 54.0688 75.4653 56 75C54.1908 74.4258 53.9312 74.5347 52 75M583 78L584 82C584.393 80.076 584.146 79.6405 583 78M37 83L38 84L37 83M608.667 84.3333C608.222 84.7776 609.278 84.7224 609.333 84.6667C609.778 84.2221 608.722 84.2778 608.667 84.3333M633.667 84.3333C633.222 84.7776 634.278 84.7224 634.333 84.6667C634.778 84.222 633.722 84.2779 633.667 84.3333M612.667 86.3333C612.222 86.7776 613.278 86.7223 613.333 86.6667C613.778 86.222 612.722 86.2779 612.667 86.3333M616 87C617.139 88.0154 617.612 88.3087 619 89C618.02 87.2167 618.092 87.4057 616 87M637.333 87.6667C637.278 87.7224 637.222 88.7778 637.667 88.3333C637.722 88.2779 637.778 87.2222 637.333 87.6667M591 89C592.139 90.0154 592.612 90.3086 594 91C593.02 89.2167 593.092 89.4056 591 89M596 91C597.543 92.2667 598.048 92.4893 600 93C598.542 91.9189 597.752 91.564 596 91M75 92C76.2484 92.6848 76.5484 92.7488 78 93C76.7516 92.3152 76.4517 92.2512 75 92M42 93L42 95L44 95L44 93L42 93M63.6667 94.3333C63.2222 94.7778 64.2778 94.7222 64.3333 94.6667C64.7777 94.2223 63.7223 94.2777 63.6667 94.3333M25.3333 95.6667C25.2778 95.7222 25.2222 96.7778 25.6667 96.3333C25.7223 96.2777 25.7777 95.2222 25.3333 95.6667M56 97C58.0924 96.5943 58.0198 96.7833 59 95C57.42 95.6836 57.2227 95.8049 56 97M643.333 95.6667C643.278 95.7224 643.222 96.7778 643.667 96.3333C643.722 96.2779 643.778 95.2222 643.333 95.6667M614.667 96.3333C614.222 96.7776 615.278 96.7224 615.333 96.6667C615.778 96.222 614.722 96.2779 614.667 96.3333M36 99L36 101L38 101L38 99L36 99M621.333 99.6667C621.278 99.7224 621.222 100.778 621.667 100.333C621.722 100.278 621.778 99.2223 621.333 99.6667M46 101L46 103L48 103L48 101L46 101M633.667 102.333C633.222 102.778 634.278 102.722 634.333 102.667C634.778 102.222 633.722 102.278 633.667 102.333M33.3333 104.667C33.2778 104.722 33.2222 105.778 33.6667 105.333C33.7222 105.278 33.7778 104.222 33.3333 104.667M625.667 105.333C625.222 105.778 626.278 105.722 626.333 105.667C626.778 105.222 625.722 105.278 625.667 105.333M31 107L31 110C31.6961 108.446 31.6961 108.554 31 107M41 108L40 110L42 110C42 108.147 42.2997 108.65 41 108M649.333 108.667C649.278 108.722 649.222 109.778 649.667 109.333C649.722 109.278 649.778 108.222 649.333 108.667M629.333 110.667C629.278 110.722 629.222 111.778 629.667 111.333C629.722 111.278 629.778 110.222 629.333 110.667M39 112L38 114L40 114C40 112.147 40.2997 112.65 39 112M630.333 112.667C630.278 112.722 630.222 113.778 630.667 113.333C630.722 113.278 630.778 112.222 630.333 112.667M650.333 112.667C650.278 112.722 650.222 113.778 650.667 113.333C650.722 113.278 650.778 112.222 650.333 112.667M17.3333 114.667C17.2778 114.722 17.2222 115.778 17.6667 115.333C17.7223 115.278 17.7777 114.222 17.3333 114.667M651.333 114.667C651.278 114.722 651.222 115.778 651.667 115.333C651.722 115.278 651.778 114.222 651.333 114.667M631.333 116.667C631.278 116.722 631.222 117.778 631.667 117.333C631.722 117.278 631.778 116.222 631.333 116.667M37 118L37 122C37.7102 120.241 37.7102 119.759 37 118z"/>
<path style="fill:#f7f2f2; stroke:none;" d="M446 135C453.765 137.511 446.736 143.947 446 149C449.291 147.681 452.573 146.151 454.775 143.25C458.094 138.88 459.133 132.869 456.137 128.044C454.053 124.687 448.346 122.52 446.514 127.344C445.635 129.659 446.002 132.572 446 135M475 168L471 168C471 172.107 469.327 180.92 472.028 184.258C474.095 186.813 479.128 185.999 482 186C490.904 186.003 502.622 186.336 507.181 176.91C508.194 174.817 508.619 172.298 508.826 170C509.741 159.792 501.904 153.16 493 149.799C488.774 148.205 484.184 147.879 481.148 144.073C474.22 135.385 486.259 128.624 493.999 130.394C498.564 131.438 501.331 135.261 506 136C505.331 133.167 504.378 129.289 502.111 127.274C491.36 117.717 472.324 128.35 473.123 142.015C473.816 153.874 483.019 157.419 492.576 161.014C496.58 162.52 504.361 166.47 503.357 171.87C501.595 181.346 487.332 184.174 480.343 179.443C476.61 176.916 475.275 172.229 475 168z"/>
<path style="fill:#d82719; stroke:none;" d="M641 124L641 128C641.71 126.24 641.71 125.76 641 124z"/>
<path style="fill:#f7f2f2; stroke:none;" d="M159 126C159.877 128.849 161.994 131.102 162.687 134.015C163.863 138.959 163 144.938 163 150L163 183L159 183L159 186C171.413 186 184.656 187.331 196.981 185.891C203.221 185.162 203.308 178.134 198 176C195.905 182.694 188.919 182.04 183 181.999C180.122 181.98 176.984 182.168 175.009 179.682C170.997 174.631 173 164.068 173 158C178.819 158 187.213 156.373 192 160C195.94 158.416 195.952 155.986 196 152C188.279 152.609 180.769 153 173 153L173 130C178.313 130 185.9 128.625 190.856 130.738C193.736 131.966 194.987 134.815 198 136L198 126L159 126M219 126C219.844 128.607 222.008 130.451 222.687 133.104C224.104 138.642 222.22 143.857 221.259 149.17C220.126 155.435 220.444 161.664 219.12 168C218.102 172.869 218.439 180.133 214 183C215.965 187.889 220.36 186.999 225 187C224.55 183.595 222.994 180.486 223.062 176.996C223.283 165.665 227 154.507 227 143C232.579 147.347 234.467 155.558 236.848 161.961C239.691 169.607 244.191 177.017 246 185L250 185C253.029 175.625 257.282 165.983 261.347 157.015C263.488 152.292 266.305 148.245 267 143L269 143C269.007 151.784 271.586 160.328 272.791 169C273.558 174.524 273 180.429 273 186L286 186C282.742 172.675 280.197 159.759 278.896 146C278.514 141.963 276.559 138.181 277.151 134.043C277.594 130.953 280.063 128.895 281 126L269 126C266.688 137.07 260.226 148.336 256.116 158.91C254.645 162.695 252.542 165.932 252 170L248 170C247.818 163.84 245.042 158.354 242.674 152.754C238.922 143.877 234.896 135.196 232 126L219 126M302 126C302.844 128.607 305.008 130.451 305.687 133.104C307.002 138.246 306 144.713 306 150C306 158.904 307.895 170.265 305.687 178.896C305.008 181.549 302.844 183.393 302 186L319 186C318.249 182.928 316.61 180.167 316.188 176.996C315.153 169.224 316 160.836 316 153C316 146.758 314.811 139.098 316.429 133.039C317.106 130.506 318.893 128.35 320 126L302 126M334 127C341.831 137.138 338 156.593 338 169C338 174.295 339.216 180.124 334 183C336.334 186.6 339.995 185.998 344 186L366 186C368.774 185.999 373.055 186.676 375.397 184.821C378.6 182.284 377 173.664 377 170L373 170C372.782 173.395 372.228 176.893 369.525 179.297C365.113 183.223 352.916 183.772 349.318 178.467C346.807 174.764 348 168.25 348 164C348 151.308 345.523 136.978 352 126C346.057 126 339.726 125.307 334 127M385 126C385.99 129.525 388.569 131.157 390.691 134.04C395.205 140.175 400.574 148.123 403.236 155.3C406.121 163.079 404 174.751 404 183L400 183L400 186L417 186C416.123 183.151 414.006 180.898 413.313 177.985C411.742 171.38 411.797 159.365 414.105 153C417.83 142.729 426.907 135.292 432 126L421 126C421.406 128.092 421.217 128.02 423 129C418.628 134.532 415.013 144.812 408 147C406.946 139.092 400.242 134.303 400 126L385 126z"/>
<path style="fill:#d82719; stroke:none;" d="M634 126C634 130.436 633.811 134.631 633 139C636.156 136.242 635.53 129.647 634 126M36 130C36.6836 131.58 36.8048 131.777 38 133C37.3164 131.42 37.1952 131.223 36 130M17 135C17.077 137.645 16.9966 139.266 19 141C18.5321 138.798 18.0628 136.969 17 135M632.333 145.667C632.278 145.722 632.222 146.778 632.667 146.333C632.722 146.278 632.778 145.222 632.333 145.667M640.333 145.667C640.278 145.722 640.222 146.778 640.667 146.333C640.722 146.278 640.778 145.222 640.333 145.667M19.3333 147.667C19.2778 147.722 19.2222 148.778 19.6667 148.333C19.7223 148.278 19.7777 147.222 19.3333 147.667M639.333 147.667C639.278 147.722 639.222 148.778 639.667 148.333C639.722 148.278 639.778 147.222 639.333 147.667M20 149L20 152C20.6961 150.446 20.6961 150.554 20 149M31 149L31 152C31.6961 150.446 31.6961 150.554 31 149M40 152L40 155C40.6961 153.446 40.6961 153.554 40 152M630 152L630 158C630.951 155.715 630.951 154.285 630 152M21.3333 158.667C21.2778 158.722 21.2222 159.778 21.6667 159.333C21.7222 159.278 21.7778 158.222 21.3333 158.667M22 160L22 164C22.7102 162.24 22.7102 161.76 22 160M648.333 160.667C648.278 160.722 648.222 161.778 648.667 161.333C648.722 161.278 648.778 160.222 648.333 160.667M22.3333 170.667C22.2778 170.722 22.2223 171.778 22.6667 171.333C22.7222 171.278 22.7778 170.222 22.3333 170.667M648 174L648 177C648.696 175.446 648.696 175.554 648 174M40 177L40 180C40.6961 178.446 40.6961 178.554 40 177M637.333 177.667C637.278 177.722 637.222 178.778 637.667 178.333C637.722 178.278 637.778 177.222 637.333 177.667M649 177L649 180C649.696 178.446 649.696 178.554 649 177M638.333 179.667C638.278 179.722 638.222 180.778 638.667 180.333C638.722 180.278 638.778 179.222 638.333 179.667M630 180L630 183C630.696 181.446 630.696 181.554 630 180M631.333 185.667C631.278 185.722 631.222 186.778 631.667 186.333C631.722 186.278 631.778 185.222 631.333 185.667M652.333 185.667C652.278 185.722 652.222 186.778 652.667 186.333C652.722 186.278 652.778 185.222 652.333 185.667M28.3333 187.667C28.2778 187.722 28.2222 188.778 28.6667 188.333C28.7222 188.278 28.7778 187.222 28.3333 187.667M37.3333 189.667C37.2777 189.722 37.2223 190.778 37.6667 190.333C37.7222 190.278 37.7778 189.222 37.3333 189.667M643.333 193.667C643.278 193.722 643.222 194.778 643.667 194.333C643.722 194.278 643.778 193.222 643.333 193.667M635.333 195.667C635.278 195.722 635.222 196.778 635.667 196.333C635.722 196.278 635.778 195.222 635.333 195.667M646.333 197.667C646.278 197.722 646.222 198.778 646.667 198.333C646.722 198.278 646.778 197.222 646.333 197.667M6 199L5 201L7 201C7 199.147 7.2997 199.65 6 199M662.667 199.333C662.222 199.778 663.278 199.722 663.333 199.667C663.778 199.222 662.722 199.278 662.667 199.333M664.667 201.333C664.222 201.778 665.278 201.722 665.333 201.667C665.778 201.222 664.722 201.278 664.667 201.333M20 202L19 206C20.6556 204.596 20.7511 204.046 20 202z"/>
<path style="fill:#f7f2f2; stroke:none;" d="M0 205L0 410L668 410L668 205C656.573 209.911 647.238 227.842 647.18 240C647.133 249.723 650.798 258.565 651.911 268C653.069 277.827 653.898 288.253 651.531 298C645.532 322.7 627.171 339.61 602 343C600.501 351.848 596.624 360.854 592.265 368.675C589.814 373.073 585.755 375.813 585 381C580.27 381.689 577.83 385.144 573.996 387.713C568.138 391.638 561.604 394.979 555 397.467C536.159 404.566 515.836 404.473 496 403.985C491.57 403.877 487.383 402.609 483 402.171C465.749 400.446 448.849 397.645 432 393.08C415.645 388.65 401.28 382.906 384 384.09C370.811 384.993 357.466 387.493 346.001 394.235C342.427 396.336 338.884 398.933 336.309 402.223C334.953 403.955 333.571 406.934 330.999 406.976C327.852 407.027 324.71 402.295 322.653 400.344C318.1 396.026 312.428 393.644 306.911 390.816C293.549 383.966 278.651 384.472 264.015 385.019C259.193 385.198 254.424 387.221 249.83 388.588C241.011 391.213 231.95 393.714 223 395.87C186.267 404.718 139.813 411.878 105.015 392.753C91.3857 385.263 82.5783 374.467 75.7106 360.715C73.3137 355.915 73.6519 346.675 69.4012 343.139C64.8582 339.36 54.7355 339.311 49.0895 337.116C35.8054 331.952 23.3676 318.819 19.5833 304.999C17.2687 296.546 16.1425 287.786 17.1289 279C18.5599 266.253 24.1035 252.975 22.8958 240C22.5245 236.01 20.6818 232.596 19.4051 228.87C16.0696 219.135 10.9168 207.89 0 205z"/>
<path style="fill:#d82719; stroke:none;" d="M638.333 206.667C638.278 206.722 638.222 207.778 638.667 207.333C638.722 207.278 638.778 206.222 638.333 206.667M645.333 210.667C645.278 210.722 645.222 211.778 645.667 211.333C645.722 211.278 645.778 210.222 645.333 210.667M25.3333 212.667C25.2778 212.722 25.2222 213.778 25.6667 213.333C25.7222 213.278 25.7778 212.222 25.3333 212.667M26.3333 214.667C26.2778 214.722 26.2223 215.778 26.6667 215.333C26.7222 215.278 26.7778 214.222 26.3333 214.667M634.333 214.667C634.278 214.722 634.222 215.778 634.667 215.333C634.722 215.278 634.778 214.222 634.333 214.667M656 214L656 216L658 216L658 214L656 214M27.3333 216.667C27.2778 216.722 27.2222 217.778 27.6667 217.333C27.7222 217.278 27.7778 216.222 27.3333 216.667M37.3333 216.667C37.2777 216.722 37.2222 217.778 37.6667 217.333C37.7222 217.278 37.7778 216.222 37.3333 216.667M38.3333 220.667C38.2777 220.722 38.2222 221.778 38.6667 221.333C38.7222 221.278 38.7778 220.222 38.3333 220.667M631 220L631 222L633 222L633 220L631 220M17 222C17.4057 224.092 17.2167 224.02 19 225C18.3086 223.612 18.0155 223.139 17 222z"/>
<path style="fill:#f7f2f2; stroke:none;" d="M217 222C217.038 225.434 217.408 227.94 219 231L221 231C225.077 227.911 231.055 229 236 229L236 281L233 281L233 285L250 285L250 281L246 281L246 229C252.645 229 258.547 230.571 265 231L267 222C257.402 224.539 247.888 224 238 224C230.771 224 223.829 224.617 217 222z"/>
<path style="fill:#d82719; stroke:none;" d="M639 222L639 225C639.696 223.446 639.696 223.554 639 222z"/>
<path style="fill:#f7f2f2; stroke:none;" d="M138 283C138.735 279.879 140.212 277.638 142 275L138 274C134.771 277.253 130.471 279.308 125.999 280.401C116.076 282.827 103.2 280.127 96.598 271.841C84.4529 256.599 87.7787 230.179 110 227.214C119.72 225.917 126.147 233.743 135 235C132.2 222.197 114.516 221.292 104 224.861C93.2925 228.495 84.2448 236.722 81.4144 248.09C77.4014 264.207 88.1274 284.693 106.004 284.995C112.898 285.112 120.134 285.534 127 284.896C130.751 284.547 134.206 283.194 138 283M585 285C584.344 280.757 581.921 277.474 582.024 273.001C582.117 268.973 584.4 265.877 585 262L569 262C571.396 266.92 575.606 273.01 571.821 278.682C570.124 281.225 566.706 281.045 564 280.984C556.721 280.82 547.54 278.374 542.475 272.904C528.935 258.286 538.645 230.829 558 227.394C567.581 225.694 573.491 233.297 581 237C582.632 229.367 577.72 226.443 571 224.745C561.161 222.259 550 222.625 541.184 228.243C520.065 241.702 523.927 271.554 545.665 281.871C557.204 287.348 572.595 285 585 285M155 281L155 285L165 285C164.635 274.673 168.624 257.852 180.999 258.005C182.872 258.029 184.966 257.969 186.606 259.028C188.822 260.458 189.586 263.294 190.623 265.561C193.473 271.786 195.923 278.069 196 285L210 285L210 281C204.814 278.205 204.125 273.301 202.116 268.17C198.266 258.336 194.115 248.64 190.246 238.83C188.977 235.613 186.562 225.197 182.025 225.207C178.037 225.215 175.329 235.959 174.174 239.035C170.784 248.07 166.832 256.943 163.544 266C161.544 271.508 160.445 277.918 155 281M281 224L281 228L285 228L285 281L281 281L281 285L323 285L323 274C320.343 275.384 318.609 278.101 315.871 279.258C311.783 280.987 302.005 281.014 298.109 278.821C292.72 275.787 291.337 259.917 297.344 256.858C303.363 253.793 310.968 257.202 317 258L317 250C309.142 251.613 302.062 252 294 252L294 229C301.351 229 315.081 225.797 317 235L321 235C321 232.34 321.768 227.962 319.972 225.742C317.905 223.187 312.873 224.001 310 224L281 224M338 224C338.844 226.607 341.008 228.451 341.687 231.104C343.002 236.246 342 242.713 342 248L342 281L338 281L338 285L355 285L355 281L352 281L352 257C367.223 257.708 367.557 278.572 380.616 283.945C386.381 286.317 397.652 285.721 400 279C396.788 279.064 393.125 279.934 390.001 279.032C383.057 277.026 378.418 268.947 374.769 263.231C373.231 260.824 370.112 257.842 370.317 254.751C370.5 251.989 373.4 250.008 374.745 247.765C377.335 243.444 378.549 235.24 375.721 230.761C368.961 220.052 348.641 224 338 224M415 224C415.844 226.607 418.008 228.451 418.687 231.104C420.002 236.246 419 242.713 419 248L419 281L415 281L415 285L433 285L433 281L429 281L429 248C429 242.713 427.998 236.246 429.313 231.104C429.992 228.451 432.156 226.607 433 224L415 224M448 224C449.149 227.376 452.739 228.682 453.682 232.105C454.998 236.88 454 243.071 454 248L454 281L450 281L450 285L464 285L464 281L460 281L460 239C465.527 242.42 469.031 246.967 473.37 251.656C479.242 258.003 485.386 263.917 491.003 270.499C495.311 275.548 499.954 282.019 506 285L506 249C506 243.411 504.923 236.538 506.313 231.104C506.992 228.451 509.156 226.607 510 224L498 224C499.853 238.007 500 251.703 500 266C496.268 264.033 493.895 260.759 490.924 257.82C485.718 252.67 479.864 247.593 475.45 241.689C471.85 236.874 468.015 233.403 463.799 229.201C462.143 227.552 460.967 225.352 458.66 224.513C455.486 223.359 451.329 224 448 224z"/>
<path style="fill:#d82719; stroke:none;" d="M31.3333 227.667C31.2778 227.722 31.2222 228.778 31.6667 228.333C31.7222 228.278 31.7778 227.222 31.3333 227.667M19 228C19.4057 230.092 19.2167 230.02 21 231C20.3164 229.42 20.1952 229.223 19 228M40 228L40 231C40.6961 229.446 40.6961 229.554 40 228M352 228L352 253C356.168 252.997 360.21 253.123 363.906 250.867C371.412 246.283 370.217 234.899 363.239 230.264C360.018 228.124 355.726 228.077 352 228M647.333 235.667C647.278 235.722 647.222 236.778 647.667 236.333C647.722 236.278 647.778 235.222 647.333 235.667M179 239C177.161 243.925 175.271 248.712 175 254L185 254C184.729 248.712 182.839 243.925 181 239L179 239M647 243L647 250C648.059 247.466 648.059 245.534 647 243M22 249L22 252C22.6961 250.446 22.6961 250.554 22 249M21 253L21 256C21.6961 254.446 21.6961 254.554 21 253M33.3333 254.667C33.2777 254.722 33.2222 255.778 33.6667 255.333C33.7222 255.278 33.7778 254.222 33.3333 254.667M40 258L40 262C41.0811 260.542 41.4361 259.752 42 258L40 258M20.3333 262.667C20.2778 262.722 20.2222 263.778 20.6667 263.333C20.7222 263.278 20.7778 262.222 20.3333 262.667M31.3333 262.667C31.2778 262.722 31.2222 263.778 31.6667 263.333C31.7222 263.278 31.7778 262.222 31.3333 262.667M19.3333 264.667C19.2778 264.722 19.2222 265.778 19.6667 265.333C19.7222 265.278 19.7778 264.222 19.3333 264.667M639.333 264.667C639.278 264.722 639.222 265.778 639.667 265.333C639.722 265.278 639.778 264.222 639.333 264.667M640.333 266.667C640.278 266.722 640.222 267.778 640.667 267.333C640.722 267.278 640.778 266.222 640.333 266.667M641 273L641 277C641.71 275.24 641.71 274.76 641 273M633.333 274.667C633.278 274.722 633.222 275.778 633.667 275.333C633.722 275.278 633.778 274.222 633.333 274.667M37 276L37 283C38.0595 280.466 38.0595 278.534 37 276M28.3333 277.667C28.2778 277.722 28.2222 278.778 28.6667 278.333C28.7222 278.278 28.7778 277.222 28.3333 277.667M634 277L634 287C635.346 283.793 635.346 280.207 634 277M652.333 289.667C652.278 289.722 652.222 290.778 652.667 290.333C652.722 290.278 652.778 289.222 652.333 289.667M632.333 295.667C632.278 295.722 632.222 296.778 632.667 296.333C632.722 296.278 632.778 295.222 632.333 295.667M640.333 295.667C640.278 295.722 640.222 296.778 640.667 296.333C640.722 296.278 640.778 295.222 640.333 295.667M639.333 297.667C639.278 297.722 639.222 298.778 639.667 298.333C639.722 298.278 639.778 297.222 639.333 297.667M38 298C38.4057 300.092 38.2167 300.02 40 301C39.3164 299.42 39.1952 299.223 38 298M629 301L629 304C630.016 302.861 630.309 302.388 631 301L629 301M638.333 302.667C638.278 302.722 638.222 303.778 638.667 303.333C638.722 303.278 638.778 302.222 638.333 302.667M21.3333 310.667C21.2778 310.722 21.2222 311.778 21.6667 311.333C21.7222 311.278 21.7778 310.222 21.3333 310.667M34.3333 310.667C34.2778 310.722 34.2222 311.778 34.6667 311.333C34.7222 311.278 34.7778 310.222 34.3333 310.667M46.3333 310.667C46.2778 310.722 46.2222 311.778 46.6667 311.333C46.7223 311.278 46.7778 310.222 46.3333 310.667M624 310L623 312L625 312C625 310.147 625.3 310.65 624 310M23.3333 314.667C23.2778 314.722 23.2222 315.778 23.6667 315.333C23.7222 315.278 23.7778 314.222 23.3333 314.667M50 314C51.1393 315.015 51.6116 315.309 53 316C52.0198 314.217 52.0924 314.406 50 314M619 315L620 316L619 315M627 318L627 320L629 320L629 318L627 318M610.667 319.333C610.222 319.778 611.278 319.722 611.333 319.667C611.778 319.222 610.722 319.278 610.667 319.333M623.667 322.333C623.222 322.778 624.278 322.722 624.333 322.667C624.778 322.222 623.722 322.278 623.667 322.333M80 323L81 324L80 323M622 323L623 324L622 323M612.667 328.333C612.222 328.778 613.278 328.722 613.333 328.667C613.778 328.222 612.722 328.278 612.667 328.333M69 330C72.1633 331.327 75.5856 331 79 331C75.8367 329.673 72.4144 330 69 330M602 330C603.506 330.683 604.315 330.826 606 331C604.494 330.317 603.685 330.174 602 330M81 331L81 335C81.7102 333.241 81.7102 332.759 81 331M88.3333 331.667C88.2778 331.722 88.2222 332.778 88.6667 332.333C88.7222 332.278 88.7778 331.222 88.3333 331.667M584.333 333.667C584.278 333.722 584.222 334.778 584.667 334.333C584.722 334.278 584.778 333.222 584.333 333.667M90.3333 339.667C90.2778 339.722 90.2222 340.778 90.6667 340.333C90.7222 340.278 90.7778 339.222 90.3333 339.667M65 341C66.5061 341.683 67.3148 341.826 69 342C67.494 341.317 66.6852 341.174 65 341M91 341L91 345C91.7102 343.241 91.7102 342.759 91 341M608.667 341.333C608.222 341.778 609.278 341.722 609.333 341.667C609.778 341.222 608.722 341.278 608.667 341.333M69.6667 342.333C69.2222 342.778 70.2778 342.722 70.3333 342.667C70.7778 342.222 69.7222 342.278 69.6667 342.333M82 343L82 346C82.6961 344.446 82.6961 344.554 82 343M601 344L600 349C601.318 347.074 601.651 346.234 601 344M71 346L71 349C71.6961 347.446 71.6961 347.554 71 346M580 349C579.014 350.479 579 350.203 579 352C580.766 351.021 580.955 350.778 580 349M599.333 352.667C599.278 352.722 599.222 353.778 599.667 353.333C599.722 353.278 599.778 352.222 599.333 352.667M598.333 354.667C598.278 354.722 598.222 355.778 598.667 355.333C598.722 355.278 598.778 354.222 598.333 354.667M74.3333 356.667C74.2777 356.722 74.2222 357.778 74.6667 357.333C74.7222 357.278 74.7778 356.222 74.3333 356.667M279 362L279 364L281 364L281 362L279 362M254 366L260 365C257.471 363.961 255.824 363.907 254 366M292 364C293.506 364.683 294.315 364.826 296 365C294.494 364.317 293.685 364.174 292 364M366 366C368.377 365.428 370.558 365.11 373 365C370.266 363.86 368.003 363.707 366 366M410 364C411.139 365.015 411.612 365.309 413 366C412.02 364.217 412.092 364.406 410 364M296.667 365.333C296.222 365.778 297.278 365.722 297.333 365.667C297.778 365.222 296.722 365.278 296.667 365.333M248.667 366.333C248.222 366.778 249.278 366.722 249.333 366.667C249.778 366.222 248.722 366.278 248.667 366.333M302.667 366.333C302.222 366.778 303.278 366.722 303.333 366.667C303.778 366.222 302.722 366.278 302.667 366.333M419.667 367.333C419.222 367.778 420.278 367.722 420.333 367.667C420.778 367.222 419.722 367.278 419.667 367.333M350.667 368.333C350.222 368.778 351.278 368.722 351.333 368.667C351.778 368.222 350.722 368.278 350.667 368.333M577 368L577 370L579 370L579 368L577 368M591 368L591 370L593 370L593 368L591 368M346.667 370.333C346.222 370.778 347.278 370.722 347.333 370.667C347.778 370.222 346.722 370.278 346.667 370.333M429.667 370.333C429.222 370.778 430.278 370.722 430.333 370.667C430.778 370.222 429.722 370.278 429.667 370.333M109.667 371.333C109.222 371.778 110.278 371.722 110.333 371.667C110.778 371.222 109.722 371.278 109.667 371.333M232 371C233.248 371.685 233.548 371.749 235 372C233.752 371.315 233.452 371.251 232 371M111.667 372.333C111.222 372.778 112.278 372.722 112.333 372.667C112.778 372.222 111.722 372.278 111.667 372.333M369.667 373.333C369.222 373.778 370.278 373.722 370.333 373.667C370.778 373.222 369.722 373.278 369.667 373.333M408.667 373.333C408.222 373.778 409.278 373.722 409.333 373.667C409.778 373.222 408.722 373.278 408.667 373.333M98.6667 374.333C98.2222 374.778 99.2778 374.722 99.3333 374.667C99.7778 374.222 98.7222 374.278 98.6667 374.333M219 374C220.506 374.683 221.315 374.826 223 375C221.494 374.317 220.685 374.174 219 374M296.667 374.333C296.222 374.778 297.278 374.722 297.333 374.667C297.778 374.222 296.722 374.278 296.667 374.333M363 374C364.248 374.685 364.548 374.749 366 375C364.752 374.315 364.452 374.251 363 374M588 374L589 375L588 374M250.667 375.333C250.222 375.778 251.278 375.722 251.333 375.667C251.778 375.222 250.722 375.278 250.667 375.333M300.667 375.333C300.222 375.778 301.278 375.722 301.333 375.667C301.778 375.222 300.722 375.278 300.667 375.333M414.667 375.333C414.222 375.778 415.278 375.722 415.333 375.667C415.778 375.222 414.722 375.278 414.667 375.333M450.667 375.333C450.222 375.778 451.278 375.722 451.333 375.667C451.778 375.222 450.722 375.278 450.667 375.333M248.667 376.333C248.222 376.778 249.278 376.722 249.333 376.667C249.778 376.222 248.722 376.278 248.667 376.333M323.667 376.333C323.222 376.778 324.278 376.722 324.333 376.667C324.778 376.222 323.722 376.278 323.667 376.333M452.667 376.333C452.222 376.778 453.278 376.722 453.333 376.667C453.778 376.222 452.722 376.278 452.667 376.333M352.667 377.333C352.222 377.778 353.278 377.722 353.333 377.667C353.778 377.222 352.722 377.278 352.667 377.333M421.667 377.333C421.222 377.778 422.278 377.722 422.333 377.667C422.778 377.222 421.722 377.278 421.667 377.333M458 377C459.506 377.683 460.315 377.826 462 378C460.494 377.317 459.685 377.174 458 377M123.667 378.333C123.222 378.778 124.278 378.722 124.333 378.667C124.778 378.222 123.722 378.278 123.667 378.333M204 378C205.248 378.685 205.548 378.749 207 379C205.752 378.315 205.452 378.251 204 378M423.667 378.333C423.222 378.778 424.278 378.722 424.333 378.667C424.778 378.222 423.722 378.278 423.667 378.333M462 378C463.248 378.685 463.548 378.749 465 379C463.752 378.315 463.452 378.251 462 378M469 379C470.941 379.951 472.898 380.439 475 381C473.266 378.997 471.645 379.077 469 379M564 379L564 381C565.635 380.455 565.455 380.635 566 379L564 379M583 379L583 381L585 381L585 379L583 379M346.667 380.333C346.222 380.778 347.278 380.722 347.333 380.667C347.778 380.222 346.722 380.278 346.667 380.333M343 381L342 383L344 383C344 381.147 344.3 381.65 343 381M483 381C485.82 382.195 488.993 382.282 492 383C489.727 380.399 486.306 381.003 483 381M109.667 382.333C109.222 382.778 110.278 382.722 110.333 382.667C110.778 382.222 109.722 382.278 109.667 382.333M227.667 382.333C227.222 382.778 228.278 382.722 228.333 382.667C228.778 382.222 227.722 382.278 227.667 382.333M339.333 383.667C339.278 383.722 339.222 384.778 339.667 384.333C339.722 384.278 339.778 383.222 339.333 383.667M391 383C394.432 384.44 398.3 384 402 384C398.568 382.56 394.7 383 391 383M556 383L556 385L558 385L558 383L556 383M219.667 384.333C219.222 384.778 220.278 384.722 220.333 384.667C220.778 384.222 219.722 384.278 219.667 384.333M446.667 384.333C446.222 384.778 447.278 384.722 447.333 384.667C447.778 384.222 446.722 384.278 446.667 384.333M292.667 385.333C292.222 385.778 293.278 385.722 293.333 385.667C293.778 385.222 292.722 385.278 292.667 385.333M369.667 385.333C369.222 385.778 370.278 385.722 370.333 385.667C370.778 385.222 369.722 385.278 369.667 385.333M454.667 385.333C454.222 385.778 455.278 385.722 455.333 385.667C455.778 385.222 454.722 385.278 454.667 385.333M256 386C257.248 386.685 257.548 386.749 259 387C257.752 386.315 257.452 386.251 256 386M336 386L337 387L336 386M408.667 386.333C408.222 386.778 409.278 386.722 409.333 386.667C409.778 386.222 408.722 386.278 408.667 386.333M456.667 386.333C456.222 386.778 457.278 386.722 457.333 386.667C457.778 386.222 456.722 386.278 456.667 386.333M123.667 387.333C123.222 387.778 124.278 387.722 124.333 387.667C124.778 387.222 123.722 387.278 123.667 387.333M333 387L333 389L335 389L335 387L333 387M413.667 387.333C413.222 387.778 414.278 387.722 414.333 387.667C414.778 387.222 413.722 387.278 413.667 387.333M464.667 387.333C464.222 387.778 465.278 387.722 465.333 387.667C465.778 387.222 464.722 387.278 464.667 387.333M125.667 388.333C125.222 388.778 126.278 388.722 126.333 388.667C126.778 388.222 125.722 388.278 125.667 388.333M250.667 388.333C250.222 388.778 251.278 388.722 251.333 388.667C251.778 388.222 250.722 388.278 250.667 388.333M300.667 388.333C300.222 388.778 301.278 388.722 301.333 388.667C301.778 388.222 300.722 388.278 300.667 388.333M244.667 389.333C244.222 389.778 245.278 389.722 245.333 389.667C245.778 389.222 244.722 389.278 244.667 389.333M304.667 389.333C304.222 389.778 305.278 389.722 305.333 389.667C305.778 389.222 304.722 389.278 304.667 389.333M477 389C478.506 389.683 479.315 389.826 481 390C479.494 389.317 478.685 389.174 477 389M535.667 389.333C535.222 389.778 536.278 389.722 536.333 389.667C536.778 389.222 535.722 389.278 535.667 389.333M481 390C482.506 390.683 483.315 390.826 485 391C483.494 390.317 482.685 390.174 481 390M570 390L571 391L570 390M308 391C309.628 392.743 310.697 393.383 313 394C311.372 392.257 310.303 391.617 308 391M427.667 391.333C427.222 391.778 428.278 391.722 428.333 391.667C428.778 391.222 427.722 391.278 427.667 391.333M502 391C506.724 392.982 512.91 392 518 392C513.276 390.018 507.09 391 502 391M429.667 392.333C429.222 392.778 430.278 392.722 430.333 392.667C430.778 392.222 429.722 392.278 429.667 392.333M433.667 393.333C433.222 393.778 434.278 393.722 434.333 393.667C434.778 393.222 433.722 393.278 433.667 393.333M227.667 394.333C227.222 394.778 228.278 394.722 228.333 394.667C228.778 394.222 227.722 394.278 227.667 394.333M223.667 395.333C223.222 395.778 224.278 395.722 224.333 395.667C224.778 395.222 223.722 395.278 223.667 395.333M441.667 395.333C441.222 395.778 442.278 395.722 442.333 395.667C442.778 395.222 441.722 395.278 441.667 395.333M219.667 396.333C219.222 396.778 220.278 396.722 220.333 396.667C220.778 396.222 219.722 396.278 219.667 396.333M446.667 396.333C446.222 396.778 447.278 396.722 447.333 396.667C447.778 396.222 446.722 396.278 446.667 396.333M554.667 397.333C554.222 397.778 555.278 397.722 555.333 397.667C555.778 397.222 554.722 397.278 554.667 397.333M209.667 398.333C209.222 398.778 210.278 398.722 210.333 398.667C210.778 398.222 209.722 398.278 209.667 398.333M456.667 398.333C456.222 398.778 457.278 398.722 457.333 398.667C457.778 398.222 456.722 398.278 456.667 398.333M458.667 399.333C458.222 399.778 459.278 399.722 459.333 399.667C459.778 399.222 458.722 399.278 458.667 399.333M198.667 400.333C198.222 400.778 199.278 400.722 199.333 400.667C199.778 400.222 198.722 400.278 198.667 400.333M468 400C469.248 400.685 469.548 400.749 471 401C469.752 400.315 469.452 400.251 468 400M335.333 402.667C335.278 402.722 335.222 403.778 335.667 403.333C335.722 403.278 335.778 402.222 335.333 402.667M529 402C531.052 402.874 532.747 402.953 535 403C532.948 402.126 531.253 402.047 529 402M333 404L333 406L335 406L335 404L333 404z"/>
</svg>
